%
M48
M72
T01C0.0320
T02C0.0400
%
T01
X1500Y6500
X1500Y7500
X5250Y4250
X5250Y5250
X8000Y4250
X8000Y5250
X10750Y4250
X10750Y5250
X13500Y4250
X13500Y5250
X16250Y4250
X16250Y5250
X19000Y4250
X19000Y5250
X22000Y4250
X22000Y5250
X4000Y6500
X4000Y7500
X6750Y6500
X6750Y7500
X9250Y6500
X9250Y7500
X12000Y6500
X12000Y7500
X14750Y6500
X14750Y7500
X17500Y6500
X17500Y7500
X20250Y6500
X20250Y7500
X2750Y4250
X2750Y5250
X1500Y2500
X1500Y1500
X5250Y2500
X5250Y1500
X8000Y2500
X8000Y1500
X10750Y2500
X10750Y1500
X13500Y2500
X13500Y1500
X16250Y2500
X16250Y1500
X19000Y2500
X19000Y1500
X22000Y2500
X22000Y1500
X4000Y2500
X4000Y1500
X6750Y2500
X6750Y1500
X9250Y2500
X9250Y1500
X12000Y2500
X12000Y1500
X14750Y2500
X14750Y1500
X17500Y2500
X17500Y1500
X20250Y2500
X20250Y1500
X2750Y2500
X2750Y1500
T02
X7000Y12500
X8000Y12500
X9000Y12500
X10000Y12500
X11000Y12500
X12000Y12500
X7000Y13500
X8000Y13500
X9000Y13500
X10000Y13500
X11000Y13500
X12000Y13500
X13000Y12500
X14000Y12500
X13000Y13500
X14000Y13500
X15000Y12500
X15000Y13500
X16000Y12500
X16000Y13500
M30
