%
M48
M72
T01C0.0320
T02C0.0400
T03C0.1250
%
T01
X4500Y15000
X5500Y15000
X11500Y3000
X12500Y3000
X11500Y5000
X12500Y5000
X11500Y7000
X12500Y7000
X11500Y9000
X12500Y9000
X11500Y11000
X12500Y11000
X11500Y13000
X12500Y13000
X11500Y15000
X12500Y15000
X4500Y13000
X5500Y13000
X4500Y11000
X5500Y11000
X4500Y9000
X5500Y9000
X4500Y7000
X5500Y7000
X4500Y5000
X5500Y5000
X4500Y3000
X5500Y3000
X4500Y1000
X5500Y1000
X11500Y1000
X12500Y1000
X3500Y15000
X3500Y16000
X10500Y3000
X10500Y4000
X10500Y5000
X10500Y6000
X10500Y7000
X10500Y8000
X10500Y9000
X10500Y10000
X10500Y11000
X10500Y12000
X10500Y13000
X10500Y14000
X10500Y15000
X10500Y16000
X3500Y13000
X3500Y14000
X3500Y11000
X3500Y12000
X3500Y9000
X3500Y10000
X3500Y7000
X3500Y8000
X3500Y5000
X3500Y6000
X3500Y3000
X3500Y4000
X3500Y1000
X3500Y2000
X10500Y1000
X10500Y2000
T02
X12500Y19000
X11500Y19000
X10500Y19000
X9500Y19000
X8500Y19000
X7500Y19000
X12500Y18000
X11500Y18000
X10500Y18000
X9500Y18000
X8500Y18000
X7500Y18000
X6500Y19000
X5500Y19000
X6500Y18000
X5500Y18000
X4500Y19000
X4500Y18000
X3500Y19000
X3500Y18000
T03
X1500Y1500
X1500Y19000
X14500Y19000
X14500Y1500
M30
